<?xml version="1.0" standalone="no"?>
<!DOCTYPE svg PUBLIC "-//W3C//DTD SVG 20010904//EN"
 "http://www.w3.org/TR/2001/REC-SVG-20010904/DTD/svg10.dtd">
<svg version="1.0" xmlns="http://www.w3.org/2000/svg"
 width="255.000000pt" height="255.000000pt" viewBox="0 0 255.000000 255.000000"
 preserveAspectRatio="xMidYMid meet">

<g transform="translate(0.000000,255.000000) scale(0.100000,-0.100000)"
fill="#000000" stroke="none">
<path d="M0 2539 c0 -5 5 -7 10 -4 5 3 10 8 10 11 0 2 -4 4 -10 4 -5 0 -10 -5
-10 -11z"/>
<path d="M2528 2543 c7 -3 16 -2 19 1 4 3 -2 6 -13 5 -11 0 -14 -3 -6 -6z"/>
<path d="M1874 2348 c-88 -90 -200 -205 -249 -255 -84 -88 -91 -93 -130 -93
-46 0 -65 13 -65 46 0 41 -55 64 -155 64 -98 0 -137 -18 -150 -67 -3 -15 -12
-31 -18 -35 -22 -14 -64 -8 -90 12 -38 30 -76 25 -160 -22 -85 -48 -103 -73
-92 -132 6 -32 4 -40 -20 -62 -22 -20 -36 -25 -64 -21 -51 6 -85 -9 -104 -46
-10 -18 -30 -54 -46 -82 -35 -59 -38 -88 -12 -112 19 -18 26 -45 23 -91 -2
-17 -10 -24 -32 -29 -50 -10 -74 -55 -79 -146 -3 -70 -1 -82 22 -116 17 -26
35 -40 56 -44 25 -5 31 -12 32 -34 2 -49 -3 -68 -22 -86 -26 -25 -24 -44 13
-116 52 -99 55 -104 80 -117 48 -27 74 -17 169 66 118 104 126 120 89 167 -11
14 -20 31 -20 38 0 7 -7 18 -15 25 -8 7 -15 20 -15 30 0 10 -9 46 -20 80 -25
79 -25 119 1 206 26 89 45 127 94 191 53 68 179 163 217 163 9 0 44 9 79 20
35 12 74 18 87 15 21 -5 17 -12 -55 -90 -42 -47 -81 -92 -86 -100 -5 -9 -8
-116 -8 -238 1 -122 -2 -234 -6 -249 -5 -15 -129 -150 -289 -315 -324 -333
-356 -367 -377 -408 -9 -19 -18 -75 -22 -150 -7 -114 -6 -121 15 -148 16 -20
30 -27 54 -27 30 0 56 23 276 250 l244 251 45 -3 c41 -3 46 -6 53 -34 4 -16
19 -41 34 -55 23 -22 34 -24 117 -24 80 0 96 3 125 23 20 14 32 32 32 46 0 32
19 46 62 46 27 0 41 -6 50 -20 27 -43 146 -8 226 67 32 31 34 35 27 78 -6 41
-4 49 19 71 22 23 30 25 71 19 43 -7 47 -5 78 27 43 46 87 132 87 172 0 20 -8
40 -20 51 -13 12 -20 31 -20 55 0 41 14 60 46 60 14 0 31 12 43 29 18 24 21
44 21 121 0 104 -15 136 -73 155 -27 8 -33 16 -35 44 -2 23 3 43 17 62 21 28
29 93 13 103 -4 3 -21 29 -36 60 -15 30 -36 62 -47 72 -32 29 -80 21 -141 -24
-76 -57 -148 -131 -148 -153 0 -10 13 -40 28 -66 115 -198 88 -433 -68 -593
-54 -55 -154 -120 -185 -120 -9 0 -28 -6 -43 -14 -37 -18 -104 -27 -122 -16
-12 8 -6 19 36 62 28 29 65 70 82 91 l32 38 0 237 c0 232 1 239 23 269 21 28
229 247 508 533 161 165 159 162 159 318 0 123 -1 130 -25 156 -13 14 -33 26
-43 26 -11 0 -83 -65 -178 -162z m171 33 c3 -10 5 -51 4 -91 -2 -82 1 -78
-178 -265 -48 -49 -127 -133 -176 -185 -50 -52 -92 -97 -95 -100 -3 -3 -60
-62 -127 -131 l-123 -126 0 -249 0 -249 -110 -113 c-61 -62 -110 -119 -110
-126 0 -7 -7 -13 -15 -13 -10 0 -15 10 -15 29 0 23 4 28 24 28 17 0 23 5 22
17 0 12 7 19 22 21 12 2 22 9 22 17 0 7 7 15 15 19 8 3 15 12 15 21 0 8 7 15
16 15 9 0 18 9 21 19 3 11 13 21 24 24 11 3 19 14 19 26 0 12 6 21 15 21 13 0
15 36 15 265 l0 265 25 0 c18 0 25 5 25 19 0 11 8 22 19 26 10 3 18 13 17 23
0 9 5 16 12 14 8 -1 16 6 19 17 3 10 13 21 24 24 10 3 19 12 19 21 0 9 7 16
15 16 8 0 15 5 15 10 0 9 86 106 148 165 12 12 22 27 22 34 0 6 6 11 14 11 8
0 18 9 21 20 3 11 13 20 21 20 8 0 14 7 14 15 0 8 6 15 13 15 14 0 77 66 77
81 0 5 7 9 15 9 8 0 15 6 15 14 0 8 9 18 20 21 11 3 20 13 20 21 0 8 6 14 14
14 8 0 18 9 21 20 3 11 13 20 21 20 8 0 14 8 14 19 0 10 8 21 19 24 15 4 19
17 23 78 3 41 3 76 1 78 -6 8 -53 -42 -53 -56 0 -7 -7 -13 -16 -13 -9 0 -18
-9 -21 -20 -3 -11 -12 -20 -19 -20 -8 0 -14 -6 -14 -14 0 -7 -9 -16 -20 -19
-11 -3 -20 -14 -20 -25 0 -12 -9 -22 -21 -25 -15 -4 -20 -11 -16 -21 5 -12 0
-16 -18 -16 -18 0 -25 -5 -25 -20 0 -11 -3 -19 -7 -19 -21 3 -33 -2 -33 -16 0
-8 -7 -15 -15 -15 -8 0 -15 -9 -15 -20 0 -13 -7 -20 -20 -20 -15 0 -20 -7 -20
-25 0 -18 -5 -25 -20 -25 -11 0 -20 -7 -20 -15 0 -8 -7 -15 -15 -15 -9 0 -20
-11 -25 -25 -5 -14 -17 -25 -26 -25 -10 0 -14 -5 -10 -15 4 -11 -2 -15 -24
-15 -26 0 -8 22 201 233 127 127 242 247 256 265 29 37 39 40 48 13z m-105
-192 c0 -6 -4 -7 -10 -4 -5 3 -10 11 -10 16 0 6 5 7 10 4 6 -3 10 -11 10 -16z
m-35 -30 c11 -17 -1 -21 -15 -4 -8 9 -8 15 -2 15 6 0 14 -5 17 -11z m-40 -39
c3 -5 1 -10 -4 -10 -6 0 -11 5 -11 10 0 6 2 10 4 10 3 0 8 -4 11 -10z m-509
-119 c15 -47 44 -68 104 -76 56 -8 67 -17 45 -35 -12 -10 -15 -10 -15 3 0 13
-15 17 -77 19 l-78 3 -3 58 -3 57 -54 0 -55 0 0 -60 0 -60 -67 0 c-71 0 -100
-10 -89 -29 5 -7 -5 -11 -28 -11 -22 0 -36 5 -36 13 0 15 -44 57 -59 57 -6 0
-11 -7 -11 -15 0 -10 -10 -15 -30 -15 l-30 0 0 -81 c0 -54 -3 -78 -11 -74 -12
8 -68 -44 -69 -62 0 -9 -22 -13 -75 -13 l-75 0 0 -35 c0 -25 -4 -33 -14 -29
-8 3 -17 0 -21 -6 -8 -13 39 -60 61 -60 23 0 18 -57 -6 -63 -18 -5 -20 -14
-20 -81 l0 -76 -60 0 -61 0 3 -57 c3 -55 4 -58 28 -55 14 2 39 0 57 -3 l32 -6
3 -77 c3 -66 5 -77 21 -76 13 1 17 -6 17 -32 0 -27 -4 -34 -20 -34 -11 0 -20
-6 -20 -14 0 -7 -9 -16 -20 -19 -11 -3 -20 -10 -20 -17 0 -7 9 -14 20 -17 14
-4 20 -14 20 -34 0 -34 29 -41 37 -9 3 11 14 20 24 20 11 0 19 6 19 13 0 8 10
18 23 24 19 9 22 17 19 51 -3 33 -8 41 -25 44 -19 3 -22 10 -25 61 -2 42 -7
57 -17 57 -12 0 -15 22 -15 120 0 98 3 120 15 120 10 0 15 15 17 58 3 50 6 57
26 60 19 3 22 9 22 44 0 23 3 38 7 35 10 -10 33 13 33 33 0 10 10 20 21 23 15
4 20 11 15 23 -5 12 -2 15 10 10 11 -4 18 1 21 14 3 11 14 20 24 20 12 0 19 7
19 20 0 13 7 20 20 20 11 0 25 9 32 20 9 13 24 20 45 20 26 0 33 4 33 19 0 17
5 18 41 14 45 -6 90 12 82 33 -4 11 18 14 117 14 101 0 121 -2 117 -14 -4 -9
3 -16 16 -20 17 -5 19 -8 9 -15 -8 -4 -39 -2 -75 6 -56 14 -71 13 -157 -3 -52
-10 -111 -26 -130 -36 -19 -10 -38 -18 -42 -18 -29 0 -184 -139 -213 -191 -62
-110 -103 -262 -92 -337 19 -122 30 -164 57 -217 29 -58 38 -95 22 -95 -5 0
-35 -20 -67 -45 -62 -48 -83 -52 -100 -20 -6 11 -18 32 -28 47 -19 27 -19 27
13 66 27 34 29 42 20 66 -5 15 -10 39 -10 53 0 38 -37 93 -63 93 -42 0 -48 13
-45 86 l3 69 33 3 c38 4 72 48 72 94 0 15 5 39 10 53 9 23 6 32 -20 61 -35 40
-36 44 -12 75 9 13 22 33 28 44 9 16 22 20 63 20 48 1 54 4 107 55 53 53 55
57 50 96 -6 47 2 61 55 92 46 28 57 28 89 -3 26 -25 27 -25 98 -12 80 16 112
37 112 77 0 15 3 30 7 34 4 4 37 6 73 4 64 -3 65 -3 76 -37z m94 -226 c0 -26
-3 -33 -15 -29 -10 4 -15 0 -15 -15 0 -15 -6 -21 -21 -21 -12 0 -23 -8 -26
-20 -3 -11 -12 -20 -19 -20 -8 0 -14 -4 -14 -10 0 -5 -18 -27 -40 -49 -22 -22
-40 -43 -40 -48 0 -4 -9 -14 -20 -21 -19 -12 -20 -23 -20 -278 0 -172 -3 -263
-10 -259 -5 3 -24 -11 -42 -32 -18 -21 -50 -55 -70 -76 -21 -21 -38 -43 -38
-48 0 -5 -7 -9 -16 -9 -9 0 -18 -9 -21 -20 -3 -11 -11 -20 -18 -20 -8 0 -16
-9 -20 -19 -3 -10 -15 -21 -25 -24 -11 -3 -20 -12 -20 -20 0 -9 -9 -19 -20
-22 -11 -3 -20 -13 -20 -21 0 -8 -6 -14 -14 -14 -8 0 -18 -9 -21 -20 -3 -11
-13 -20 -21 -20 -8 0 -14 -6 -14 -14 0 -8 -9 -18 -20 -21 -11 -3 -20 -13 -20
-21 0 -8 -7 -14 -15 -14 -8 0 -17 -11 -21 -24 -4 -17 -11 -22 -25 -19 -15 4
-19 0 -19 -21 0 -14 -5 -26 -11 -26 -15 0 -59 -42 -59 -57 0 -7 -7 -13 -16
-13 -9 0 -18 -9 -21 -19 -3 -11 -13 -21 -23 -24 -14 -3 -17 -15 -17 -56 0 -28
-3 -55 -7 -58 -3 -3 -6 1 -6 10 0 9 -4 17 -10 17 -5 0 -10 -6 -10 -12 0 -7 -3
-30 -6 -51 -5 -30 -4 -37 10 -37 9 0 16 4 16 8 0 5 13 22 30 38 16 16 30 35
30 42 0 6 5 12 11 12 16 0 59 42 59 58 0 7 12 17 26 22 14 6 22 15 19 20 -3 6
2 13 12 17 21 8 63 50 63 64 0 5 7 9 16 9 9 0 18 9 21 20 3 11 12 20 19 20 8
0 18 8 21 18 8 22 43 57 66 65 9 3 17 13 17 21 0 8 9 18 20 21 11 3 20 13 20
21 0 8 10 14 25 14 34 0 31 -11 -10 -39 -29 -20 -309 -305 -449 -458 -21 -23
-43 -40 -47 -37 -5 3 -9 47 -9 97 0 106 -17 80 189 292 181 186 458 479 480
507 19 23 20 43 23 274 l3 249 103 105 c57 58 110 115 119 128 20 29 23 28 23
-13z m494 -119 c32 -55 32 -67 2 -103 -21 -26 -23 -33 -15 -81 10 -69 38 -116
70 -120 40 -6 49 -21 49 -82 0 -61 -9 -76 -50 -82 -30 -4 -65 -70 -73 -136 -4
-35 -1 -48 19 -71 31 -37 30 -51 -7 -105 -32 -49 -43 -53 -84 -34 -24 11 -29
7 -90 -53 -62 -61 -77 -90 -55 -104 23 -14 8 -45 -36 -74 -53 -37 -70 -38
-101 -9 -48 45 -204 5 -211 -54 -5 -40 -23 -49 -94 -46 l-63 3 -3 33 c-4 41
-45 69 -115 78 -26 4 -50 11 -53 15 -6 10 93 12 149 3 l37 -7 0 -56 0 -57 53
1 c59 1 85 11 68 28 -13 13 -14 56 -2 76 5 8 38 16 87 20 55 4 78 10 77 19 -2
7 8 12 22 12 15 0 25 -6 25 -14 0 -8 9 -18 20 -21 11 -3 20 -13 20 -21 0 -21
37 -17 43 5 3 13 11 18 23 15 26 -6 54 13 36 24 -9 6 -12 27 -10 68 3 56 4 59
35 67 24 7 34 17 38 38 8 34 29 42 103 37 55 -3 57 -2 54 20 -1 17 4 25 18 29
23 6 28 43 6 43 -8 0 -18 9 -21 20 -3 11 -13 20 -21 20 -8 0 -14 10 -14 25 0
15 5 24 13 23 8 -2 13 12 15 42 3 69 12 111 21 105 5 -3 11 2 15 10 6 17 52
20 62 4 13 -22 27 10 29 66 l1 55 -57 0 c-67 0 -69 3 -69 101 0 55 -3 69 -15
69 -9 0 -15 10 -15 26 0 14 4 22 10 19 5 -3 15 3 22 15 7 11 18 20 25 20 21 0
15 37 -7 43 -14 4 -19 12 -18 29 2 17 -2 23 -17 23 -13 0 -19 -6 -18 -18 0
-12 -4 -16 -13 -13 -7 3 -19 -3 -26 -13 -7 -9 -21 -20 -31 -24 -14 -5 -18 -16
-15 -49 3 -38 6 -43 26 -40 22 2 23 -1 21 -50 -3 -45 0 -52 19 -59 21 -8 22
-13 22 -143 0 -131 -1 -135 -22 -138 -20 -3 -22 -8 -19 -56 1 -29 -1 -52 -6
-51 -33 6 -43 -3 -43 -36 0 -26 -3 -33 -15 -29 -14 6 -19 -6 -18 -43 1 -7 -8
-13 -18 -13 -12 0 -19 -7 -19 -20 0 -11 -7 -20 -15 -20 -8 0 -15 -7 -15 -15 0
-8 -9 -15 -20 -15 -13 0 -20 -7 -20 -20 0 -12 -6 -20 -12 -19 -31 4 -48 -2
-48 -16 0 -9 -9 -15 -22 -15 -33 0 -52 -15 -44 -35 5 -14 -1 -16 -47 -14 -48
3 -52 1 -51 -19 1 -22 -2 -22 -148 -22 -125 0 -148 2 -148 15 0 8 -8 15 -17
15 -15 0 -14 2 3 14 18 13 27 13 69 0 27 -7 68 -14 92 -14 55 0 165 26 218 51
22 10 43 19 47 19 43 0 238 200 238 244 0 8 7 19 15 26 8 7 17 28 21 49 3 20
12 58 20 85 18 64 18 133 -1 186 -8 23 -15 53 -15 66 0 13 -13 50 -30 82 -16
33 -30 66 -30 75 0 8 16 27 35 41 20 15 47 38 62 52 38 35 57 30 87 -20z
m-1004 -1007 c0 -5 -4 -9 -10 -9 -5 0 -10 7 -10 16 0 8 5 12 10 9 6 -3 10 -10
10 -16z m-40 -40 c0 -6 -4 -7 -10 -4 -5 3 -10 11 -10 16 0 6 5 7 10 4 6 -3 10
-11 10 -16z m-35 -29 c3 -5 -1 -10 -9 -10 -9 0 -16 5 -16 10 0 6 4 10 9 10 6
0 13 -4 16 -10z m-41 -51 c-8 -13 -24 -1 -24 18 0 13 3 13 15 3 8 -7 12 -16 9
-21z m-34 -40 c0 -6 -4 -7 -10 -4 -5 3 -10 11 -10 16 0 6 5 7 10 4 6 -3 10
-11 10 -16z m-40 -29 c0 -5 -2 -10 -4 -10 -3 0 -8 5 -11 10 -3 6 -1 10 4 10 6
0 11 -4 11 -10z"/>
</g>
</svg>
