<?xml version="1.0" standalone="no"?>
<!DOCTYPE svg PUBLIC "-//W3C//DTD SVG 20010904//EN"
 "http://www.w3.org/TR/2001/REC-SVG-20010904/DTD/svg10.dtd">
<svg version="1.0" xmlns="http://www.w3.org/2000/svg"
 width="360.000000pt" height="360.000000pt" viewBox="0 0 360.000000 360.000000"
 preserveAspectRatio="xMidYMid meet">

<g transform="translate(0.000000,360.000000) scale(0.100000,-0.100000)"
fill="#000000" stroke="none">
<path d="M1726 3522 c-4 -10 -33 -38 -67 -63 -33 -24 -90 -68 -125 -97 l-65
-53 -14 35 c-8 20 -15 42 -15 51 0 24 -13 18 -61 -25 -24 -23 -66 -56 -94 -74
-27 -19 -61 -46 -74 -60 -14 -14 -28 -26 -33 -26 -4 0 -17 -9 -28 -20 -23 -23
-40 -19 -34 8 3 9 -1 25 -8 35 -12 17 -19 12 -83 -56 -70 -74 -133 -145 -134
-153 -4 -14 -57 -94 -64 -94 -4 0 -6 12 -5 27 5 48 -24 37 -69 -27 -23 -32
-50 -76 -59 -97 -31 -72 -62 -177 -57 -191 4 -9 0 -12 -12 -10 -32 6 -56 -73
-60 -201 -3 -90 -8 -111 -52 -221 -3 -8 -7 -22 -8 -30 -13 -105 -13 -104 -68
-130 -75 -35 -96 -58 -99 -105 -2 -22 -8 -44 -15 -50 -6 -5 -21 -38 -32 -72
-55 -165 10 -401 123 -448 21 -9 46 -13 56 -10 16 5 19 -4 26 -92 4 -54 7
-102 6 -106 -2 -5 1 -6 6 -3 5 3 17 -29 27 -71 17 -74 17 -77 -1 -90 -10 -7
-25 -13 -33 -13 -9 0 -79 -7 -156 -14 -77 -7 -157 -11 -178 -8 -22 2 -43 -1
-52 -8 -19 -16 -20 -98 -1 -122 19 -26 57 -37 86 -26 37 15 200 36 200 27 0
-5 -71 -126 -158 -271 -117 -194 -168 -269 -193 -286 -19 -13 -38 -31 -43 -42
-12 -25 0 -83 23 -111 18 -23 20 -23 225 -20 138 2 217 -1 241 -9 30 -10 40
-9 60 4 46 30 45 98 -1 141 -38 35 -78 41 -118 16 -27 -17 -50 -21 -125 -21
-66 0 -91 3 -90 13 0 6 80 143 178 302 131 215 183 291 198 293 20 3 36 -20
32 -44 -3 -20 2 -35 10 -30 5 3 22 -25 37 -62 16 -37 33 -70 38 -74 6 -4 4
-14 -7 -26 -41 -45 -5 -117 56 -115 27 1 40 -5 51 -22 14 -21 13 -23 -8 -33
-42 -19 -99 -76 -117 -117 -33 -73 -19 -172 33 -227 26 -28 32 -30 83 -26 l55
5 10 -39 c6 -21 17 -38 24 -38 11 0 11 11 4 51 -6 35 -6 55 1 62 8 8 11 0 12
-26 1 -20 3 -41 4 -47 1 -5 3 -17 4 -25 1 -13 145 -15 1200 -15 l1199 0 7 30
c4 17 10 28 14 25 5 -2 11 19 14 48 4 28 13 90 22 137 18 98 21 282 5 389 -10
74 -2 139 23 169 6 8 12 21 13 30 1 10 11 53 23 96 25 95 25 98 6 164 -25 84
-41 89 -169 53 -120 -34 -160 -36 -266 -11 -137 33 -212 42 -260 31 -24 -5
-46 -8 -48 -6 -6 6 35 92 47 99 6 4 11 15 11 26 0 11 10 20 27 25 57 14 144
79 209 157 62 73 81 232 42 335 -12 32 -21 63 -19 68 1 6 -1 7 -4 3 -4 -4 -16
3 -26 16 -11 14 -39 34 -64 46 -32 15 -43 26 -36 34 12 15 7 384 -7 421 -6 17
-23 71 -38 120 -26 86 -105 237 -138 264 -9 8 -16 17 -16 21 0 5 -12 21 -27
37 -29 29 -82 96 -95 118 -9 15 -45 56 -138 155 -38 41 -70 78 -70 82 0 4 -22
30 -50 58 -27 28 -68 83 -91 121 -26 43 -47 69 -57 67 -14 -3 -52 -104 -52
-141 0 -27 -32 -7 -118 74 -39 38 -77 69 -82 69 -10 0 -26 -17 -54 -55 -12
-16 -16 -17 -29 -6 -26 21 -59 98 -52 121 7 23 -10 50 -31 50 -7 0 -15 -8 -18
-18z m4 -93 c0 -5 -7 -9 -15 -9 -15 0 -20 12 -9 23 8 8 24 -1 24 -14z m565
-297 c0 -18 -20 -15 -23 4 -3 10 1 15 10 12 7 -3 13 -10 13 -16z m-335 -207
c59 -7 170 -44 170 -57 0 -5 6 -8 13 -5 12 5 119 -50 125 -65 2 -4 10 -8 17
-8 25 0 85 -83 104 -145 23 -74 21 -211 -4 -285 -22 -66 -10 -84 37 -57 l30
17 -6 -27 c-3 -16 -9 -74 -12 -131 -7 -98 -8 -102 -28 -96 -12 3 -29 14 -40
23 -10 9 -20 15 -22 13 -7 -5 -114 41 -114 48 0 15 -114 25 -285 24 -140 0
-194 -4 -244 -18 -74 -20 -136 -49 -169 -79 -19 -18 -38 -21 -135 -25 -95 -3
-118 -1 -154 15 -24 11 -40 23 -35 28 4 5 2 6 -4 2 -5 -3 -44 3 -85 14 -40 11
-111 23 -156 26 -46 3 -83 10 -83 14 0 12 -97 12 -104 0 -3 -4 -35 -11 -71
-14 -36 -4 -86 -15 -112 -27 -25 -11 -47 -20 -48 -20 -2 0 3 31 11 70 14 73
92 250 147 330 53 78 131 170 145 170 7 0 11 4 8 9 -7 11 42 61 61 61 8 0 11
4 8 10 -8 14 108 83 238 143 38 17 38 17 32 -4 -13 -39 -6 -119 14 -163 10
-24 16 -48 13 -53 -4 -4 -3 -5 2 0 5 4 17 0 27 -9 20 -18 41 -11 33 10 -3 8 0
17 6 21 6 3 9 1 8 -5 -2 -6 8 -19 21 -28 24 -17 24 -17 16 8 -4 14 -9 48 -11
75 -1 32 -6 49 -14 47 -6 -1 -9 2 -5 8 3 6 11 8 16 5 5 -4 10 -1 10 4 3 26 4
30 12 37 4 4 7 -4 7 -17 0 -13 9 -37 19 -53 24 -37 92 -95 111 -97 8 0 24 -2
35 -3 105 -15 119 -16 99 -7 -43 19 -64 60 -62 117 2 30 3 54 4 54 0 0 14 -19
31 -43 55 -76 143 -103 129 -39 -5 23 -4 25 6 11 7 -8 25 -23 40 -33 37 -24
46 -3 14 35 -41 49 -35 81 23 128 28 21 48 41 45 44 -5 5 37 2 116 -8z m-243
-137 c-3 -7 -5 -2 -5 12 0 14 2 19 5 13 2 -7 2 -19 0 -25z m-927 -33 c-12 -15
-30 -12 -30 6 0 5 10 9 21 9 18 0 19 -2 9 -15z m-45 -69 c22 -33 2 -66 -37
-66 -22 0 -28 5 -28 23 1 67 35 89 65 43z m2044 -510 c7 -8 8 -16 4 -18 -13
-7 -33 -4 -33 5 0 4 0 12 0 17 0 14 16 12 29 -4z m-726 -47 c73 -11 201 -52
226 -72 10 -9 12 -31 7 -102 -13 -175 -7 -163 -111 -214 -133 -64 -448 -47
-617 35 -43 20 -43 17 -31 173 l6 91 62 30 c127 60 302 83 458 59z m545 -37
c2 -7 -6 -12 -17 -12 -21 0 -27 11 -14 24 9 9 26 2 31 -12z m-1455 -22 c40
-14 74 -32 82 -44 8 -12 17 -57 20 -101 l7 -81 -36 -32 c-20 -17 -49 -34 -64
-37 -15 -4 -35 -11 -45 -16 -38 -21 -249 -41 -362 -35 -135 7 -166 15 -183 48
-19 41 -27 258 -10 281 23 31 157 47 353 43 145 -3 180 -7 238 -26z m-656 -62
c-3 -8 -6 -5 -6 6 -1 11 2 17 5 13 3 -3 4 -12 1 -19z m0 -70 c-3 -7 -5 -2 -5
12 0 14 2 19 5 13 2 -7 2 -19 0 -25z m991 -101 c1 -66 14 -103 34 -91 5 3 27
-13 48 -35 36 -36 56 -47 83 -42 5 1 6 -3 2 -9 -3 -6 3 -70 15 -143 27 -172
28 -174 34 -195 6 -16 0 -18 -44 -18 -27 1 -45 3 -40 4 22 8 -3 22 -37 22 -40
0 -152 -27 -169 -41 -6 -5 -19 -7 -28 -3 -9 3 -16 1 -16 -5 0 -14 -118 -5
-137 10 -32 27 -168 -28 -148 -60 3 -6 2 -11 -3 -11 -24 0 -31 60 -17 152 17
123 62 329 74 341 5 5 14 3 22 -5 11 -13 22 -11 76 11 48 18 62 28 58 40 -3 8
-3 12 1 8 17 -17 44 27 44 73 0 41 3 47 27 56 15 5 48 9 74 10 l46 0 1 -69z
m932 45 c0 -18 -5 -29 -14 -29 -8 0 -16 13 -18 29 -4 22 -1 28 14 28 13 0 18
-8 18 -28z m487 12 c49 -24 64 -52 75 -145 11 -90 5 -140 -18 -164 -9 -8 -13
-15 -11 -15 14 0 -57 -69 -123 -118 -74 -57 -75 -57 -144 -57 -85 -1 -89 -5
-106 -140 -11 -88 -53 -255 -72 -285 -8 -14 -4 29 8 71 2 9 -4 24 -15 33 -19
17 -20 17 -30 -3 -6 -11 -11 -31 -11 -46 0 -31 -53 -140 -86 -175 -52 -57 -81
-90 -118 -134 l-38 -47 -24 35 c-14 20 -28 36 -32 36 -5 0 -18 9 -31 21 -12
11 -29 18 -37 15 -16 -6 -19 -26 -4 -26 6 0 10 -8 10 -17 0 -10 11 -40 25 -67
13 -27 22 -53 19 -58 -11 -17 -24 -7 -44 32 -42 82 -86 97 -169 60 -23 -11
-46 -18 -50 -16 -14 9 -52 96 -46 106 3 5 1 10 -5 10 -7 0 -10 19 -9 52 3 50
3 51 18 27 9 -13 32 -41 53 -62 30 -32 43 -38 70 -35 30 3 33 6 33 37 1 19 -8
44 -18 57 -10 13 -16 24 -13 24 3 0 -3 9 -14 20 -11 11 -20 25 -20 31 0 5 -4
7 -10 4 -5 -3 -10 -2 -10 4 0 11 40 37 52 33 5 -1 7 4 5 11 -1 6 4 11 11 9 7
-1 17 9 22 23 5 14 16 28 24 31 20 8 14 81 -12 131 l-22 43 25 -10 c19 -7 25
-6 25 5 0 34 -75 58 -110 35 -13 -9 -13 -12 2 -24 50 -37 41 -127 -16 -171
-37 -28 -64 -32 -72 -10 -4 8 -11 15 -18 15 -6 1 -27 14 -46 30 -24 22 -29 30
-17 30 9 0 17 4 17 9 0 5 -11 8 -25 7 -13 -2 -39 6 -57 17 l-33 20 43 11 c53
13 65 34 63 102 l-1 52 52 -14 c68 -18 110 -18 153 0 32 14 52 42 21 30 -7 -3
-16 1 -19 9 -3 9 -14 13 -30 10 -36 -7 -137 16 -144 33 -3 8 -11 14 -18 14
-23 0 -44 35 -59 103 -19 81 -20 111 -5 101 29 -18 161 -44 224 -44 69 0 235
35 246 52 6 10 22 -7 32 -33 3 -10 16 -16 31 -16 33 0 33 10 -1 32 l-27 18 41
21 c23 12 55 38 71 58 16 21 32 35 36 31 3 -3 6 0 6 7 0 11 3 11 12 2 7 -7 24
-12 40 -12 22 0 26 3 21 17 -5 12 1 10 18 -7 24 -24 26 -35 33 -155 7 -143 29
-321 39 -332 4 -3 7 1 7 10 0 10 4 25 9 35 5 9 19 64 30 120 12 57 26 112 32
123 5 11 7 24 3 30 -12 19 46 60 82 57 18 -1 31 -5 29 -9 -3 -3 4 -14 15 -24
11 -10 20 -29 20 -42 0 -29 -42 -73 -69 -73 -27 0 -48 -38 -26 -46 26 -10 81
5 108 30 14 13 27 22 29 20 6 -5 11 35 12 85 0 35 -5 48 -26 66 -15 13 -24 26
-20 30 4 4 0 6 -8 5 -8 -1 -30 -2 -49 -1 l-34 1 22 24 c32 34 82 56 124 56 39
0 64 -19 73 -56 3 -13 11 -24 16 -24 14 0 1 47 -20 75 -18 24 -92 55 -131 55
-13 0 -43 -13 -67 -30 l-44 -29 0 28 c0 28 22 53 70 80 59 34 125 39 177 15z
m-2459 -6 c7 -7 12 -26 12 -43 0 -28 -4 -33 -40 -44 -34 -10 -60 -34 -60 -56
0 -7 75 1 88 9 4 3 8 -4 8 -15 0 -10 -9 -22 -19 -25 -10 -3 -25 -21 -34 -39
-9 -19 -20 -32 -24 -30 -3 3 -9 -5 -12 -17 -4 -12 -1 -25 5 -29 6 -4 8 -11 5
-16 -8 -12 29 -72 49 -80 13 -5 13 -8 2 -15 -9 -7 -4 -8 14 -4 25 6 27 4 34
-40 3 -25 2 -50 -3 -55 -11 -11 -78 21 -78 39 0 7 -5 16 -12 20 -7 4 -22 30
-34 57 -17 39 -22 69 -22 135 0 65 -1 76 -7 45 l-7 -40 -2 46 c-1 61 9 110 22
102 6 -4 7 -1 3 6 -12 19 14 70 43 86 32 18 53 19 69 3z m2052 -13 c0 -24 -24
-44 -37 -32 -6 6 23 57 32 57 3 0 5 -11 5 -25z m-1970 -86 c0 -5 -4 -9 -10 -9
-5 0 -10 7 -10 16 0 8 5 12 10 9 6 -3 10 -10 10 -16z m48 -89 c34 -16 64 -35
67 -40 12 -19 82 -49 131 -55 53 -7 121 7 239 49 38 14 71 23 74 21 2 -2 -2
-41 -9 -86 -10 -65 -19 -88 -42 -115 -16 -18 -35 -32 -41 -31 -7 1 -11 -3 -10
-9 3 -14 -94 -67 -107 -59 -5 3 -10 2 -10 -3 0 -5 -9 -12 -20 -15 -38 -10 -20
-22 31 -20 48 2 91 12 132 28 16 7 17 1 13 -64 -3 -65 -2 -73 20 -90 13 -10
37 -24 53 -31 34 -13 48 -37 23 -37 -35 0 -43 -3 -37 -13 4 -6 32 -10 64 -9
80 3 131 -29 137 -87 2 -20 -3 -23 -44 -28 -70 -9 -191 8 -232 33 -19 11 -43
21 -52 21 -10 0 -33 14 -53 31 -33 29 -36 36 -33 78 2 30 7 45 16 43 6 -1 12
2 12 7 0 5 8 8 18 7 26 -2 21 28 -6 32 -12 2 -37 -6 -56 -17 -33 -21 -34 -23
-32 -80 3 -66 10 -75 114 -148 53 -37 53 -37 31 -54 -29 -21 -10 -32 31 -18
25 9 45 9 89 -2 31 -8 97 -13 146 -12 l91 1 17 -48 c18 -50 64 -85 96 -72 53
22 74 54 52 78 -5 5 -12 18 -15 30 -6 19 -3 20 84 19 53 -1 95 -6 102 -13 13
-13 28 -101 18 -107 -4 -3 -47 -9 -96 -15 -49 -5 -102 -13 -119 -17 -49 -10
-177 -7 -216 6 -20 6 -51 23 -69 36 -43 31 -50 31 -50 -1 0 -38 28 -79 67 -98
20 -10 31 -21 27 -27 -5 -8 3 -10 25 -7 18 3 34 1 37 -3 2 -5 12 -5 20 -2 10
4 5 -10 -15 -37 -58 -80 -93 -257 -73 -362 5 -27 6 -48 1 -48 -5 0 -9 5 -9 11
0 6 -7 9 -15 5 -22 -8 -85 25 -85 44 0 10 -7 86 -15 171 -23 228 -42 254 -174
245 -51 -3 -89 -12 -125 -30 -28 -14 -54 -22 -59 -17 -18 18 -77 193 -77 228
0 21 -11 55 -26 81 -45 77 -124 472 -124 623 0 47 4 59 23 73 l22 17 -22 -6
c-20 -5 -23 -2 -23 19 0 14 2 26 4 26 2 0 31 -13 64 -30z m-151 -127 c-3 -10
-5 -4 -5 12 0 17 2 24 5 18 2 -7 2 -21 0 -30z m2288 -83 c-3 -5 -14 -10 -23
-9 -14 0 -13 2 3 9 27 11 27 11 20 0z m-925 -94 c0 -2 -7 -7 -16 -10 -8 -3
-12 -2 -9 4 6 10 25 14 25 6z m50 -20 c0 -2 -7 -7 -16 -10 -8 -3 -12 -2 -9 4
6 10 25 14 25 6z m-113 -73 c-3 -10 -5 -4 -5 12 0 17 2 24 5 18 2 -7 2 -21 0
-30z m-120 -64 c7 -17 9 -37 6 -45 -3 -8 0 -14 7 -14 6 0 8 5 4 13 -4 6 11 -5
33 -25 23 -20 51 -41 62 -48 12 -6 19 -15 16 -21 -4 -5 1 -9 10 -9 10 0 13 -5
9 -12 -5 -7 -2 -9 8 -5 9 3 21 0 27 -6 14 -14 15 -30 1 -22 -5 3 -10 -2 -11
-12 0 -10 -3 -13 -5 -7 -6 14 -54 -7 -74 -31 -19 -23 -26 -19 -49 33 -12 26
-29 57 -37 70 -16 21 -15 22 5 22 11 0 21 4 21 9 0 13 -27 21 -71 21 -21 0
-39 4 -39 9 0 12 26 32 33 25 8 -9 20 63 12 75 -3 6 0 11 7 11 8 0 19 -14 25
-31z m-361 -77 c30 -12 63 -22 74 -22 11 0 24 -9 30 -20 6 -11 7 -20 3 -20 -4
0 1 -6 12 -13 11 -9 15 -19 10 -27 -5 -8 -4 -11 2 -7 6 4 15 -5 22 -19 16 -36
13 -42 -8 -17 l-18 22 -1 -29 c0 -20 5 -31 18 -35 11 -3 17 -12 14 -20 -4 -10
0 -12 16 -8 11 3 20 2 18 -3 -1 -5 2 -19 6 -32 10 -31 -1 -72 -19 -72 -38 0
-85 91 -52 103 9 3 8 8 -4 18 -9 8 -22 31 -29 51 -18 57 -87 128 -130 132 -19
2 -38 4 -42 5 -11 2 -24 55 -20 80 4 24 5 23 24 -10 14 -25 34 -41 74 -57z
m330 -59 c11 -16 24 -41 31 -56 l12 -28 -87 7 c-48 4 -89 11 -90 15 -2 5 -7 7
-10 5 -4 -2 -19 16 -34 40 l-27 44 93 0 c91 0 94 -1 112 -27z m1446 -17 c87
-18 161 -36 165 -39 14 -15 -81 -6 -178 17 -67 16 -109 22 -120 16 -9 -5 -19
-7 -22 -4 -2 3 -48 5 -101 5 -53 0 -96 4 -96 9 0 41 147 39 352 -4z m303 10
c-28 -28 -89 -41 -125 -28 -24 9 -24 10 15 20 22 6 56 15 75 20 55 16 61 14
35 -12z m-1433 -164 c10 -15 31 -47 47 -72 30 -45 30 -45 8 -49 -16 -2 -29 6
-47 30 -14 18 -37 46 -53 62 -27 28 -27 29 -6 34 16 4 17 8 7 14 -10 6 -8 9 7
9 11 0 28 -12 37 -28z m-219 -520 c-17 -12 -17 -14 0 -43 23 -41 23 -89 -1
-89 -10 0 -27 -7 -38 -15 -30 -23 -47 -19 -40 10 12 46 -59 90 -108 67 -16 -7
-25 -22 -29 -49 -4 -21 -14 -48 -22 -60 -17 -24 -59 -31 -71 -12 -12 20 -5
190 10 271 26 136 56 156 56 37 0 -56 4 -73 20 -89 23 -23 77 -27 104 -7 26
19 19 134 -12 198 -12 25 -22 48 -22 52 0 4 21 7 48 7 56 0 86 14 62 30 -8 5
-24 10 -35 10 -12 0 1 12 35 33 l55 32 3 -185 c2 -167 1 -186 -15 -198z m496
282 c21 -27 28 -54 14 -54 -9 0 -53 62 -53 73 0 15 20 6 39 -19z m-326 -16
c12 -20 13 -26 4 -22 -10 3 -13 -3 -9 -24 2 -16 -1 -33 -7 -37 -8 -5 -11 11
-9 54 1 33 3 59 3 58 1 -1 9 -14 18 -29z m-905 -90 c26 -26 13 -55 -34 -83
l-47 -28 -18 24 c-25 33 -24 43 12 73 33 28 68 33 87 14z m1066 -24 c3 -9 3
-20 0 -25 -9 -16 -27 -5 -31 19 -3 26 22 31 31 6z m-60 -99 c6 -23 5 -27 -5
-18 -6 6 -13 24 -15 39 -3 34 11 19 20 -21z m45 -19 c12 -22 16 -34 8 -28 -12
10 -16 9 -21 -3 -3 -9 -2 -14 3 -11 5 3 15 -2 22 -11 12 -14 12 -16 -2 -11
-10 4 -16 1 -16 -8 0 -8 6 -13 14 -10 9 4 13 -5 13 -34 0 -22 -4 -40 -9 -40
-14 0 -78 76 -100 118 -17 34 -18 42 -7 58 13 17 14 17 20 -4 4 -12 11 -22 16
-22 4 0 7 -6 6 -14 -2 -23 18 -20 33 6 12 21 12 22 -2 4 -15 -17 -16 -17 -12
10 2 16 4 33 4 38 1 11 2 10 30 -38z m201 -62 c-8 -8 -23 -20 -34 -25 -15 -7
-13 -3 7 15 31 29 47 35 27 10z m-1277 -67 c-11 -80 -22 -85 -22 -8 -1 62 1
72 13 62 10 -8 12 -25 9 -54z m-61 -46 c-3 -64 -6 -79 -19 -77 -38 6 -44 73
-10 123 12 18 24 33 27 33 3 0 4 -36 2 -79z m1343 19 c4 -6 1 -9 -7 -8 -7 2
-13 -4 -13 -12 -1 -17 -24 -60 -25 -45 0 6 6 17 13 24 10 12 8 13 -8 7 -17 -6
-17 -4 4 18 28 30 28 30 36 16z m-195 -49 c0 -7 -121 -54 -126 -48 -9 9 19 26
66 39 30 9 56 17 58 17 1 1 2 -3 2 -8z m-140 -55 c0 -2 -9 -6 -20 -9 -11 -3
-18 -1 -14 4 5 9 34 13 34 5z"/>
<path d="M1853 2483 c4 -3 -1 -11 -10 -18 -9 -7 -13 -17 -9 -23 9 -15 43 -16
51 -2 8 13 -12 50 -27 50 -6 0 -8 -3 -5 -7z"/>
<path d="M2002 2438 c-30 -56 -45 -65 -121 -72 -39 -4 -75 -4 -81 -1 -5 3 -10
2 -10 -4 0 -6 -12 -8 -32 -4 -22 4 -29 3 -24 -5 4 -7 1 -12 -7 -12 -23 0 -111
-29 -130 -42 -20 -15 -14 -43 17 -82 14 -17 18 -17 97 -1 65 13 136 16 340 15
166 0 260 3 264 10 7 12 -19 53 -28 43 -4 -3 -7 -1 -7 5 0 7 -6 12 -14 12 -8
0 -26 14 -39 30 -14 17 -28 30 -32 30 -3 0 -39 25 -79 55 -40 30 -78 55 -85
55 -6 0 -20 -14 -29 -32z m95 -184 c-3 -3 -12 -4 -19 -1 -8 3 -5 6 6 6 11 1
17 -2 13 -5z"/>
<path d="M781 2405 c-30 -24 -57 -43 -60 -42 -3 1 -6 -1 -6 -5 0 -4 -16 -23
-34 -42 -54 -56 -39 -62 140 -58 118 3 168 -1 227 -14 43 -10 80 -23 84 -28 4
-6 10 -7 14 -4 4 4 14 3 24 -2 9 -5 25 -7 36 -4 22 6 55 57 45 71 -8 13 -111
63 -129 63 -7 0 -10 5 -6 12 4 6 3 8 -3 5 -10 -7 -162 19 -204 35 -15 5 -31
20 -37 34 -16 33 -28 30 -91 -21z"/>
<path d="M2766 2172 c-3 -5 1 -9 9 -9 8 0 12 4 9 9 -3 4 -7 8 -9 8 -2 0 -6 -4
-9 -8z"/>
<path d="M1926 2071 c-26 -29 -19 -39 22 -34 47 5 66 12 59 20 -4 3 1 12 11
19 14 11 10 12 -30 12 -31 0 -51 -5 -62 -17z"/>
<path d="M1755 2073 c-52 -6 -115 -25 -115 -35 0 -5 -4 -7 -9 -4 -16 10 -41
-5 -41 -24 0 -10 -4 -20 -9 -22 -5 -1 -11 -39 -12 -83 l-3 -80 49 -32 c27 -18
52 -30 56 -28 4 3 3 22 -2 42 -5 21 -9 41 -9 45 0 6 45 -9 95 -32 35 -16 158
-20 178 -5 10 7 27 11 38 8 14 -4 30 4 51 26 28 29 29 37 3 31 -31 -7 -214 2
-238 11 -25 10 -30 9 -43 -10 -8 -11 -24 -21 -35 -21 -20 0 -26 15 -9 25 17
11 11 23 -17 33 l-28 10 32 1 c17 1 39 9 49 18 16 17 16 18 -7 23 -22 6 -22 7
9 13 17 4 32 11 32 17 0 13 -55 2 -102 -20 l-38 -17 0 23 c0 16 4 22 14 18 21
-8 139 26 153 44 16 22 16 32 1 31 -7 -1 -26 -4 -43 -6z"/>
<path d="M2075 2060 c-22 -25 -20 -27 35 -35 28 -4 73 -13 100 -20 40 -11 50
-11 50 -1 0 29 -38 49 -122 65 -39 7 -50 5 -63 -9z"/>
<path d="M1820 1972 c-8 -4 -16 -13 -17 -19 -2 -9 15 -13 60 -13 58 0 87 11
87 32 0 10 -109 9 -130 0z"/>
<path d="M1982 1963 c-27 -11 3 -23 59 -23 66 0 79 14 22 24 -43 7 -63 7 -81
-1z"/>
<path d="M2090 1870 c-12 -23 4 -29 17 -6 4 7 15 16 23 19 10 4 8 6 -7 6 -13
1 -27 -8 -33 -19z"/>
<path d="M675 2056 c-33 -6 -65 -15 -71 -19 -13 -7 -13 -145 -1 -164 5 -7 4
-13 -1 -13 -11 0 -3 -61 10 -77 6 -7 18 -13 27 -13 15 0 18 12 19 78 0 42 4
98 7 124 l7 48 59 12 c65 13 90 39 36 37 -18 -1 -59 -6 -92 -13z"/>
<path d="M890 2054 c-12 -13 -7 -15 45 -12 36 2 60 8 63 16 6 19 -92 16 -108
-4z"/>
<path d="M1125 2041 c-3 -6 11 -13 31 -17 39 -7 53 -26 34 -48 -9 -11 -28 -13
-81 -9 -49 4 -77 2 -94 -7 -47 -25 -28 -33 66 -27 67 4 89 3 86 -6 -2 -7 -16
-11 -30 -11 -15 1 -27 -2 -27 -6 0 -4 -6 -7 -12 -8 -75 -8 -213 -44 -223 -59
-16 -21 -1 -30 20 -13 8 6 19 9 24 5 12 -7 187 31 215 46 17 10 18 8 12 -13
-4 -12 -9 -38 -13 -56 -10 -59 22 -27 42 41 10 34 27 79 37 99 23 46 17 59
-32 81 -47 20 -47 20 -55 8z"/>
<path d="M876 2015 c-48 -13 -84 -35 -58 -35 21 0 136 33 147 42 13 12 -32 8
-89 -7z"/>
<path d="M833 1963 c-62 -5 -69 -18 -15 -27 57 -9 97 -7 110 6 19 19 14 28
-15 26 -16 -1 -52 -3 -80 -5z"/>
<path d="M800 1839 c0 -5 5 -7 10 -4 6 3 10 8 10 11 0 2 -4 4 -10 4 -5 0 -10
-5 -10 -11z"/>
<path d="M2307 1673 c-7 -12 42 -57 51 -48 3 3 -6 17 -20 31 -14 14 -28 22
-31 17z"/>
<path d="M1958 763 c7 -3 16 -2 19 1 4 3 -2 6 -13 5 -11 0 -14 -3 -6 -6z"/>
<path d="M557 1653 c-34 -24 -47 -43 -29 -43 8 0 72 58 72 66 0 7 -4 5 -43
-23z"/>
<path d="M1754 1056 c-10 -8 -17 -17 -14 -19 3 -3 14 1 24 9 11 7 17 16 15 19
-3 3 -14 -2 -25 -9z"/>
<path d="M1330 1076 c0 -2 8 -10 18 -17 15 -13 16 -12 3 4 -13 16 -21 21 -21
13z"/>
<path d="M1870 937 c0 -15 32 -57 44 -57 7 0 8 3 0 8 -5 4 -18 18 -27 32 -9
13 -17 21 -17 17z"/>
</g>
</svg>
